<mxfile host="app.diagrams.net" modified="2021-03-16T12:51:55.221Z" agent="5.0 (Windows NT 10.0; Win64; x64) AppleWebKit/537.36 (KHTML, like Gecko) Chrome/89.0.4389.82 Safari/537.36" etag="c2R8dz3W5KH7M1zWFgvG" version="14.4.8" type="github">
  <diagram id="PHIxCa3SNrpb9010m5iW" name="Page-1">
    <mxGraphModel dx="944" dy="695" grid="1" gridSize="10" guides="1" tooltips="1" connect="1" arrows="1" fold="1" page="1" pageScale="1" pageWidth="827" pageHeight="1169" math="0" shadow="0">
      <root>
        <mxCell id="0" />
        <mxCell id="1" parent="0" />
      </root>
    </mxGraphModel>
  </diagram>
</mxfile>
